<?xml version="1.0" standalone="no"?>
<!DOCTYPE svg PUBLIC "-//W3C//DTD SVG 20010904//EN"
 "http://www.w3.org/TR/2001/REC-SVG-20010904/DTD/svg10.dtd">
<svg version="1.0" xmlns="http://www.w3.org/2000/svg"
 width="225.000000pt" height="225.000000pt" viewBox="0 0 225.000000 225.000000"
 preserveAspectRatio="xMidYMid meet">
<metadata>
Created by potrace 1.14, written by Peter Selinger 2001-2017
</metadata>
<g transform="translate(0.000000,225.000000) scale(0.100000,-0.100000)"
fill="#000000" stroke="none">
<path d="M1159 2173 c-12 -31 -114 -392 -124 -437 -6 -27 -7 -28 -25 -11 -12
11 -20 31 -20 50 0 66 -29 133 -84 192 -29 32 -63 79 -75 105 -21 43 -62 88
-81 88 -4 0 -11 -24 -14 -52 -4 -29 -10 -70 -13 -90 -3 -24 2 -58 16 -96 14
-43 19 -74 15 -109 -5 -37 0 -63 20 -115 14 -38 23 -68 20 -68 -14 0 -97 61
-189 140 -161 138 -245 193 -245 160 0 -15 44 -100 154 -295 72 -128 92 -171
80 -173 -8 -2 -47 16 -86 39 -61 37 -78 43 -132 44 -41 1 -75 8 -103 23 -45
24 -102 28 -134 12 -18 -10 -16 -15 32 -73 35 -43 71 -73 115 -97 38 -21 72
-48 83 -67 13 -20 41 -41 80 -59 33 -16 60 -32 60 -35 1 -4 -38 -10 -86 -13
-128 -11 -408 -59 -406 -71 1 -5 87 -34 190 -62 234 -65 293 -84 293 -93 0 -9
-36 -24 -109 -44 -54 -16 -130 -55 -164 -85 -11 -9 -42 -27 -69 -41 -49 -25
-98 -73 -86 -86 26 -25 167 -31 229 -8 31 10 61 13 100 9 46 -5 64 -2 112 19
31 14 57 23 57 20 0 -10 -58 -90 -102 -139 -24 -28 -51 -61 -61 -75 -9 -14
-39 -56 -67 -94 -27 -38 -50 -76 -50 -83 0 -20 37 -15 78 10 20 13 95 54 167
92 72 37 149 79 173 92 55 32 55 17 1 -67 -35 -55 -42 -74 -49 -141 -5 -55
-13 -85 -29 -105 -25 -32 -27 -74 -5 -137 19 -55 37 -60 59 -14 9 17 39 53 67
79 32 28 57 62 67 89 9 24 26 49 39 55 43 21 71 56 82 105 13 54 26 69 34 42
5 -19 29 -165 46 -282 18 -131 30 -171 50 -171 13 0 23 13 33 43 25 74 96 300
107 344 6 23 15 45 19 48 11 6 27 -42 37 -107 6 -48 36 -99 74 -125 12 -8 33
-39 47 -69 30 -65 73 -104 114 -104 26 0 28 2 19 24 -4 13 -8 53 -8 89 0 36
-3 71 -7 77 -4 7 -11 60 -15 119 -5 59 -15 124 -24 144 -8 20 -12 37 -7 37 9
0 117 -74 244 -168 91 -68 163 -109 174 -99 5 5 -67 151 -102 206 -45 73 -126
233 -120 239 3 3 43 -13 88 -36 61 -32 93 -42 127 -42 25 0 83 -10 130 -21 80
-21 87 -21 123 -6 l39 17 -73 71 c-41 40 -92 80 -117 90 -25 11 -74 46 -109
79 -35 33 -68 60 -73 60 -6 0 -10 4 -10 8 0 9 123 33 294 58 111 16 193 44
151 52 -18 3 -78 20 -369 103 -96 28 -107 35 -76 48 14 5 51 15 82 21 56 11
129 54 156 92 8 10 31 26 53 34 44 18 99 75 99 104 0 16 -4 18 -22 11 -14 -5
-45 -4 -75 2 -47 10 -61 8 -129 -15 -61 -20 -83 -24 -110 -17 -25 7 -47 5 -91
-10 -32 -11 -59 -18 -61 -16 -4 3 95 144 180 257 69 92 86 124 71 139 -12 12
-133 -45 -278 -130 -95 -56 -155 -85 -162 -78 -6 7 14 44 47 87 34 45 50 91
50 149 0 26 9 72 20 104 24 69 25 108 3 150 l-16 32 -13 -31 c-7 -16 -42 -56
-78 -88 -40 -35 -68 -68 -72 -84 -10 -47 -26 -71 -65 -98 -24 -16 -48 -45 -61
-75 -26 -54 -38 -62 -38 -23 0 32 -34 258 -56 372 -18 87 -36 106 -55 55z
m-291 -208 c44 -36 68 -87 83 -171 6 -38 21 -82 33 -97 21 -28 21 -29 2 -43
-57 -41 -95 5 -115 140 -8 55 -21 96 -41 130 -16 28 -30 47 -30 43 0 -5 11
-27 24 -50 14 -26 26 -66 30 -104 3 -34 15 -88 26 -120 25 -71 25 -68 -4 -81
-23 -10 -25 -7 -55 60 -25 57 -31 84 -31 142 0 49 -7 84 -20 115 -21 45 -27
116 -11 125 5 4 12 0 14 -6 3 -7 6 1 7 17 1 29 2 28 28 -21 15 -29 42 -64 60
-79z m356 -100 c28 -205 28 -195 11 -201 -8 -4 -27 -3 -42 0 l-26 7 7 166 c4
92 10 178 13 192 7 25 7 25 14 -9 4 -19 14 -89 23 -155z m356 104 c-11 -30
-20 -75 -20 -100 0 -34 -10 -65 -36 -115 -20 -38 -47 -91 -61 -117 -25 -50
-46 -58 -66 -25 -15 23 6 85 48 145 54 75 66 102 63 136 l-4 32 -8 -40 c-5
-22 -22 -55 -38 -73 -15 -18 -46 -69 -68 -112 -36 -73 -42 -79 -62 -71 -13 4
-24 17 -26 29 -5 34 54 138 99 174 44 35 69 74 69 107 0 24 56 91 76 91 17 0
18 -12 2 -28 -9 -9 -9 -12 0 -12 6 0 19 12 29 26 25 39 27 15 3 -47z m-433
-149 l-12 -145 -37 -3 c-37 -3 -38 -3 -38 32 0 20 6 53 14 73 8 21 30 88 48
148 40 133 44 114 25 -105z m-512 -107 l166 -136 -22 -24 c-13 -12 -31 -23
-41 -23 -10 0 -18 -6 -18 -14 0 -22 -45 -70 -57 -63 -6 4 -43 64 -83 134 -40
71 -84 147 -97 171 -14 23 -22 42 -19 42 3 0 42 -45 87 -100 44 -54 93 -107
108 -116 l26 -18 -25 31 c-14 17 -60 72 -102 122 -73 86 -105 131 -93 131 3 0
79 -61 170 -137z m1130 -21 c-33 -31 -79 -74 -103 -95 -23 -20 -38 -37 -34
-37 5 0 55 41 112 90 56 50 105 88 108 85 9 -9 -221 -315 -237 -315 -4 0 -18
11 -31 25 -20 21 -22 28 -12 50 7 14 19 28 27 31 8 4 15 11 15 17 0 6 -10 1
-23 -11 -13 -12 -30 -22 -38 -22 -21 0 -59 29 -59 45 0 16 130 107 170 120 14
4 52 23 85 41 33 19 65 34 70 34 6 0 -17 -26 -50 -58z m-511 -68 c16 -8 39
-14 51 -14 13 0 25 -7 29 -15 3 -8 14 -15 25 -15 11 0 21 -3 23 -8 2 -4 19
-17 38 -30 19 -12 29 -22 23 -22 -7 0 -13 -4 -13 -10 0 -5 7 -7 16 -3 10 4 22
0 28 -9 6 -8 20 -20 31 -26 12 -7 15 -12 6 -12 -17 0 25 -43 54 -54 19 -8 19
-8 2 -15 -17 -6 -15 -9 10 -20 26 -13 27 -14 8 -22 -19 -7 -19 -8 -1 -8 15 -1
16 -4 7 -15 -10 -12 -8 -15 11 -18 29 -4 27 -21 -4 -30 l-23 -6 23 -1 c22 -1
32 -21 10 -21 -17 0 3 -17 27 -23 15 -4 14 -5 -7 -6 -39 -2 -43 -17 -5 -26
l32 -8 -30 -7 -30 -7 29 -8 30 -8 -25 -10 c-17 -7 -20 -11 -9 -14 44 -14 45
-15 15 -29 -26 -11 -27 -13 -8 -14 26 0 42 -20 16 -20 -17 -1 -17 -1 -1 -14
21 -16 13 -26 -21 -26 -28 0 -18 -15 14 -22 14 -3 5 -8 -25 -15 -25 -6 -35
-11 -23 -12 33 -2 39 -21 6 -21 l-28 -1 25 -14 c25 -14 25 -14 3 -15 -24 0
-33 -20 -10 -20 6 -1 2 -9 -10 -19 -16 -14 -19 -21 -10 -30 8 -8 6 -11 -8 -12
-17 0 -16 -2 5 -10 20 -8 22 -12 10 -19 -8 -5 -26 -10 -40 -11 l-25 -1 25 -7
25 -7 -30 -11 c-18 -7 -23 -12 -12 -12 27 -1 20 -21 -9 -21 -14 0 -23 -4 -19
-9 3 -5 1 -12 -5 -16 -6 -4 -8 -10 -6 -14 9 -14 -118 -89 -164 -96 -25 -3 -60
-12 -77 -18 -25 -8 -36 -8 -45 1 -10 10 -10 15 1 22 8 4 16 16 17 25 2 13 -5
16 -39 13 -29 -2 -41 -7 -39 -16 2 -10 -5 -12 -26 -7 -17 3 -40 0 -57 -9 l-28
-15 34 -10 c30 -10 28 -10 -21 -5 -30 3 -59 9 -64 15 -6 5 -22 9 -37 9 -15 0
-32 7 -39 15 -7 8 -18 15 -25 15 -7 0 -24 11 -39 25 -15 14 -31 25 -35 25 -5
0 -23 16 -40 35 -17 19 -33 35 -37 35 -12 0 -33 34 -34 53 0 9 -4 17 -10 17
-5 0 -10 6 -10 13 0 7 -11 29 -25 50 -14 20 -23 41 -20 46 3 6 1 12 -5 16 -6
4 -8 10 -5 15 3 5 1 11 -3 14 -5 3 -7 17 -4 31 2 14 0 31 -6 38 -7 8 -9 33 -5
62 3 28 5 57 5 65 0 8 3 24 8 35 55 134 74 175 83 175 4 0 7 7 7 15 0 7 6 18
13 22 7 4 25 24 40 43 30 37 61 60 114 85 17 8 34 19 37 24 8 12 93 40 154 51
60 10 168 2 206 -16z m-934 -95 c36 -10 78 -18 93 -18 15 -1 57 -19 93 -40 36
-22 79 -43 95 -46 37 -8 42 -17 22 -45 -14 -19 -22 -22 -59 -16 -53 7 -58 -8
-9 -24 27 -9 35 -17 35 -36 0 -14 -7 -27 -16 -31 -27 -10 -150 56 -185 100
-18 22 -51 48 -75 58 -49 22 -99 62 -115 90 -14 27 1 24 52 -11 24 -16 51 -30
59 -29 8 0 -1 9 -20 19 -19 11 -46 29 -60 41 l-25 21 25 -7 c14 -4 54 -15 90
-26z m1744 -68 c3 -5 -11 -11 -32 -15 -41 -7 -167 -75 -139 -76 9 0 34 11 55
25 21 13 62 29 91 35 65 12 61 12 61 1 0 -5 -19 -16 -42 -26 -23 -9 -59 -32
-79 -50 -58 -52 -83 -65 -161 -86 -119 -33 -127 -33 -135 -13 -5 13 5 27 38
56 45 39 44 49 -1 23 -41 -23 -67 -19 -78 13 -9 28 -8 29 57 60 58 28 76 32
147 32 53 0 92 5 110 15 32 16 100 20 108 6z m-1506 -283 l-3 -33 -140 2
c-247 4 -280 18 -100 43 50 6 97 13 105 15 8 1 43 3 78 4 l63 1 -3 -32z m1357
-50 c77 -22 142 -42 145 -45 6 -7 -259 5 -311 13 -31 5 -38 11 -43 36 -12 59
-12 59 209 -4z m-1420 -7 l60 -6 0 -35 c0 -29 -4 -35 -20 -34 -33 3 -293 72
-312 83 -18 11 133 7 272 -8z m1520 -60 c23 -5 -4 -12 -110 -29 -77 -12 -152
-24 -167 -27 -32 -5 -41 5 -32 40 l6 25 137 -1 c75 -1 150 -4 166 -8z m-1445
-105 c0 -16 -12 -28 -42 -44 -25 -13 -32 -20 -18 -17 14 4 36 9 49 12 25 6 41
-9 41 -39 0 -12 -21 -27 -66 -48 -56 -25 -80 -30 -148 -30 -51 -1 -90 -6 -106
-15 -28 -16 -88 -19 -109 -6 -12 8 -10 11 10 15 13 2 37 8 53 11 34 7 119 55
112 62 -3 3 -25 -6 -49 -20 -25 -15 -66 -28 -98 -32 l-54 -5 45 22 c25 13 61
35 80 49 53 40 95 59 158 70 31 6 72 19 92 29 40 21 50 18 50 -14z m1264 -77
c34 -31 86 -68 116 -82 51 -22 120 -80 120 -99 0 -10 -10 -5 -50 23 -14 9 -55
27 -90 39 -36 12 -85 34 -110 50 -25 16 -67 39 -93 50 -54 24 -62 36 -48 72 9
25 12 26 52 16 28 -8 61 -29 103 -69z m-42 -75 c43 -25 101 -52 129 -59 28 -8
66 -24 85 -37 36 -24 46 -45 17 -33 -10 4 -52 11 -94 16 -93 11 -149 30 -202
69 -23 16 -48 30 -56 30 -33 0 -43 15 -30 44 11 24 17 27 43 22 16 -4 65 -27
108 -52z m-1130 -21 c26 -23 23 -37 -19 -73 -21 -18 -60 -54 -88 -79 -64 -59
-140 -121 -149 -121 -8 0 59 97 78 115 6 6 29 33 51 60 45 58 97 115 104 115
2 0 13 -7 23 -17z m950 -50 c8 -10 26 -38 40 -63 14 -25 48 -85 77 -135 28
-49 51 -94 51 -98 0 -12 -223 221 -234 244 -6 12 -4 26 8 44 19 29 37 32 58 8z
m-882 -23 c25 -25 25 -32 3 -53 -23 -20 -273 -151 -278 -145 -6 6 233 218 246
218 5 0 18 -9 29 -20z m918 -175 c69 -69 123 -128 119 -131 -12 -13 -307 199
-307 221 0 15 27 34 49 35 8 0 71 -56 139 -125z m-813 81 c17 -12 18 -18 6
-57 -7 -24 -32 -73 -56 -109 -24 -36 -51 -88 -60 -117 -9 -29 -27 -68 -41 -88
-13 -20 -24 -42 -24 -50 0 -8 -4 -15 -10 -15 -18 0 -11 51 14 99 14 25 27 68
29 94 3 30 22 83 51 140 25 51 46 98 46 105 0 16 22 15 45 -2z m109 -37 c5 -4
3 -18 -6 -31 -8 -13 -22 -45 -32 -72 -12 -31 -39 -68 -72 -102 -30 -29 -54
-61 -54 -71 0 -27 -27 -61 -61 -78 -35 -19 -35 -18 -4 25 13 18 32 56 41 84
19 59 71 156 84 156 5 0 14 17 21 38 20 64 28 74 52 66 12 -3 26 -10 31 -15z
m485 -43 c20 -40 25 -66 26 -135 1 -47 7 -104 14 -126 14 -44 11 -117 -3 -80
-4 11 -24 54 -45 95 -26 50 -40 94 -44 131 -3 31 -15 75 -27 99 -27 53 -21 72
22 68 28 -3 37 -10 57 -52z m-102 -16 c12 -25 29 -81 39 -125 11 -48 29 -96
46 -120 18 -25 30 -59 34 -90 l5 -50 -24 40 c-26 42 -63 93 -97 135 -11 14
-28 65 -40 120 -11 52 -25 99 -30 104 -20 20 -11 37 18 34 21 -2 32 -13 49
-48z m-253 -20 c-1 -76 20 -86 26 -12 l5 57 49 3 48 3 -6 -38 c-6 -34 -86
-308 -105 -358 -4 -10 -6 20 -3 69 3 57 1 91 -7 99 -8 8 -11 -4 -11 -48 0 -32
-2 -56 -4 -54 -6 5 -46 284 -46 315 0 22 4 25 28 22 26 -3 27 -5 26 -58z"/>
<path d="M835 1428 c-30 -11 -98 -68 -90 -76 2 -2 18 7 35 21 17 15 48 31 68
38 42 12 107 9 107 -6 0 -5 4 -16 8 -22 6 -9 1 -13 -18 -13 -15 0 -24 -4 -20
-10 3 -5 14 -10 24 -10 11 0 29 -9 42 -21 20 -18 21 -19 4 -12 -11 4 -45 8
-75 8 -42 0 -63 -6 -87 -23 -18 -13 -33 -29 -33 -36 0 -14 87 -56 114 -56 9 0
16 -7 16 -15 0 -18 25 -19 62 -2 27 12 88 87 88 108 0 30 -37 82 -78 109 -49
32 -107 39 -167 18z m35 -159 c0 -24 -23 -21 -28 4 -2 10 3 17 12 17 10 0 16
-9 16 -21z m130 2 c0 -12 -20 -25 -27 -18 -7 7 6 27 18 27 5 0 9 -4 9 -9z"/>
<path d="M1245 1406 c-69 -32 -77 -53 -81 -208 -3 -121 -2 -128 17 -128 10 0
19 6 19 14 0 22 15 27 44 17 38 -15 52 -48 29 -73 -14 -16 -25 -19 -56 -14
-26 4 -45 2 -60 -9 -28 -19 -51 -19 -71 1 -11 11 -25 14 -45 9 -36 -8 -71 9
-71 35 0 10 15 30 33 44 28 23 30 26 11 26 -12 0 -27 -7 -34 -15 -17 -21 -49
-19 -85 5 -54 36 -60 23 -15 -30 44 -50 56 -98 40 -155 -7 -25 -17 -45 -22
-45 -8 0 -28 -42 -23 -48 2 -2 15 4 28 13 21 13 33 14 64 6 50 -14 86 -39 79
-57 -3 -8 -1 -14 5 -14 6 0 7 -4 4 -10 -4 -6 23 -10 74 -10 46 0 83 5 86 11 4
6 14 8 22 5 11 -5 13 -2 9 9 -3 9 1 18 9 21 8 4 13 10 10 15 -9 14 28 28 59
22 l29 -6 -23 41 c-22 39 -25 41 -42 26 -20 -19 -67 -14 -105 11 -27 18 -29
28 -7 49 18 18 85 21 101 5 8 -8 17 -5 31 9 11 11 18 23 15 26 -4 3 6 17 20
30 15 14 27 30 27 36 0 5 8 10 18 10 17 0 48 37 38 47 -3 3 -26 -7 -51 -22
l-46 -27 -55 29 c-46 24 -54 32 -52 53 2 18 9 25 25 25 12 0 25 4 29 8 4 4 22
7 40 7 40 0 124 39 124 57 0 6 -20 24 -46 39 -45 27 -67 28 -144 9 -24 -6 -24
-6 -5 9 11 9 36 21 57 27 31 8 44 6 79 -11 43 -23 60 -20 39 5 -17 21 8 21 38
-1 13 -9 26 -14 29 -11 8 9 -57 46 -101 58 -22 6 -52 8 -68 5 -34 -7 -38 9 -4
18 28 7 123 -11 132 -25 3 -5 10 -9 16 -9 23 0 -24 37 -61 48 -57 18 -100 14
-156 -12z m152 -160 c-4 -9 -11 -16 -17 -16 -11 0 -14 33 -3 44 11 10 26 -11
20 -28z m-137 -2 c0 -8 -4 -12 -10 -9 -5 3 -10 13 -10 21 0 8 5 12 10 9 6 -3
10 -13 10 -21z m-199 -264 c29 -16 25 -58 -7 -70 -14 -6 -34 -10 -44 -10 -17
0 -19 5 -14 33 4 17 14 38 22 45 19 15 19 15 43 2z m77 -53 c2 -10 -3 -17 -11
-17 -16 0 -30 24 -19 34 10 10 27 1 30 -17z m-13 -80 c17 0 53 3 80 8 l50 8
-18 -21 c-36 -40 -148 -40 -197 -1 l-25 21 40 -8 c22 -4 54 -7 70 -7z"/>
<path d="M380 1463 c8 -3 22 -11 30 -17 13 -10 13 -9 1 7 -7 9 -21 17 -30 16
-13 0 -14 -1 -1 -6z"/>
</g>
</svg>
